solid Mesh
  facet normal -1 0 0
    outer loop
      vertex 0 1.0842e-16 0.5
      vertex 0 0.00121797 0.534878
      vertex 0 0.5 0.5
    endloop
  endfacet
  facet normal -1 0 0
    outer loop
      vertex 0 0.0301537 0.32899
      vertex 0 0.0109262 0.396044
      vertex 0 0.5 0.5
    endloop
  endfacet
  facet normal -1 0 0
    outer loop
      vertex 0 0.0109262 0.396044
      vertex 0 0.00121797 0.465122
      vertex 0 0.5 0.5
    endloop
  endfacet
  facet normal -1 0 0
    outer loop
      vertex 0 0.5 0.5
      vertex 0 0.00121797 0.465122
      vertex 0 1.0842e-16 0.5
    endloop
  endfacet
  facet normal -1 0 0
    outer loop
      vertex 0 0.14033 0.152671
      vertex 0 0.0954915 0.206107
      vertex 0 0.5 0.5
    endloop
  endfacet
  facet normal -1 0 0
    outer loop
      vertex 0 0.0954915 0.206107
      vertex 0 0.0585262 0.265264
      vertex 0 0.5 0.5
    endloop
  endfacet
  facet normal -1 0 0
    outer loop
      vertex 0 0.5 0.5
      vertex 0 0.0585262 0.265264
      vertex 0 0.0301537 0.32899
    endloop
  endfacet
  facet normal -1 0 0
    outer loop
      vertex 0 0.312697 0.0364081
      vertex 0 0.25 0.0669873
      vertex 0 0.5 0.5
    endloop
  endfacet
  facet normal -1 0 0
    outer loop
      vertex 0 0.25 0.0669873
      vertex 0 0.192169 0.105995
      vertex 0 0.5 0.5
    endloop
  endfacet
  facet normal -1 0 0
    outer loop
      vertex 0 0.5 0.5
      vertex 0 0.192169 0.105995
      vertex 0 0.14033 0.152671
    endloop
  endfacet
  facet normal -1 0 0
    outer loop
      vertex 0 0.51745 0.000304586
      vertex 0 0.447736 0.00273905
      vertex 0 0.5 0.5
    endloop
  endfacet
  facet normal -1 0 0
    outer loop
      vertex 0 0.447736 0.00273905
      vertex 0 0.379039 0.0148521
      vertex 0 0.5 0.5
    endloop
  endfacet
  facet normal -1 0 0
    outer loop
      vertex 0 0.5 0.5
      vertex 0 0.379039 0.0148521
      vertex 0 0.312697 0.0364081
    endloop
  endfacet
  facet normal -1 0 0
    outer loop
      vertex 0 0.719186 0.050603
      vertex 0 0.654508 0.0244717
      vertex 0 0.5 0.5
    endloop
  endfacet
  facet normal -1 0 0
    outer loop
      vertex 0 0.654508 0.0244717
      vertex 0 0.586824 0.00759612
      vertex 0 0.5 0.5
    endloop
  endfacet
  facet normal -1 0 0
    outer loop
      vertex 0 0.5 0.5
      vertex 0 0.586824 0.00759612
      vertex 0 0.51745 0.000304586
    endloop
  endfacet
  facet normal -1 0 0
    outer loop
      vertex 0 0.883022 0.178606
      vertex 0 0.834565 0.128428
      vertex 0 0.5 0.5
    endloop
  endfacet
  facet normal -1 0 0
    outer loop
      vertex 0 0.834565 0.128428
      vertex 0 0.779596 0.0854812
      vertex 0 0.5 0.5
    endloop
  endfacet
  facet normal -1 0 0
    outer loop
      vertex 0 0.5 0.5
      vertex 0 0.779596 0.0854812
      vertex 0 0.719186 0.050603
    endloop
  endfacet
  facet normal -1 0 0
    outer loop
      vertex 0 0.980631 0.362181
      vertex 0 0.956773 0.296632
      vertex 0 0.5 0.5
    endloop
  endfacet
  facet normal -1 0 0
    outer loop
      vertex 0 0.956773 0.296632
      vertex 0 0.924024 0.23504
      vertex 0 0.5 0.5
    endloop
  endfacet
  facet normal -1 0 0
    outer loop
      vertex 0 0.5 0.5
      vertex 0 0.924024 0.23504
      vertex 0 0.883022 0.178606
    endloop
  endfacet
  facet normal -1 0 0
    outer loop
      vertex 0 0.995134 0.569587
      vertex 0 1 0.5
      vertex 0 0.5 0.5
    endloop
  endfacet
  facet normal -1 0 0
    outer loop
      vertex 0 1 0.5
      vertex 0 0.995134 0.430413
      vertex 0 0.5 0.5
    endloop
  endfacet
  facet normal -1 0 0
    outer loop
      vertex 0 0.5 0.5
      vertex 0 0.995134 0.430413
      vertex 0 0.980631 0.362181
    endloop
  endfacet
  facet normal -1 0 0
    outer loop
      vertex 0 0.924024 0.76496
      vertex 0 0.956773 0.703368
      vertex 0 0.5 0.5
    endloop
  endfacet
  facet normal -1 0 0
    outer loop
      vertex 0 0.956773 0.703368
      vertex 0 0.980631 0.637819
      vertex 0 0.5 0.5
    endloop
  endfacet
  facet normal -1 0 0
    outer loop
      vertex 0 0.5 0.5
      vertex 0 0.980631 0.637819
      vertex 0 0.995134 0.569587
    endloop
  endfacet
  facet normal -1 0 0
    outer loop
      vertex 0 0.779596 0.914519
      vertex 0 0.834565 0.871572
      vertex 0 0.5 0.5
    endloop
  endfacet
  facet normal -1 0 0
    outer loop
      vertex 0 0.834565 0.871572
      vertex 0 0.883022 0.821394
      vertex 0 0.5 0.5
    endloop
  endfacet
  facet normal -1 0 0
    outer loop
      vertex 0 0.5 0.5
      vertex 0 0.883022 0.821394
      vertex 0 0.924024 0.76496
    endloop
  endfacet
  facet normal -1 0 0
    outer loop
      vertex 0 0.586824 0.992404
      vertex 0 0.654508 0.975528
      vertex 0 0.5 0.5
    endloop
  endfacet
  facet normal -1 0 0
    outer loop
      vertex 0 0.654508 0.975528
      vertex 0 0.719186 0.949397
      vertex 0 0.5 0.5
    endloop
  endfacet
  facet normal -1 0 0
    outer loop
      vertex 0 0.5 0.5
      vertex 0 0.719186 0.949397
      vertex 0 0.779596 0.914519
    endloop
  endfacet
  facet normal -1 0 0
    outer loop
      vertex 0 0.379039 0.985148
      vertex 0 0.447736 0.997261
      vertex 0 0.5 0.5
    endloop
  endfacet
  facet normal -1 0 0
    outer loop
      vertex 0 0.447736 0.997261
      vertex 0 0.51745 0.999695
      vertex 0 0.5 0.5
    endloop
  endfacet
  facet normal -1 0 0
    outer loop
      vertex 0 0.5 0.5
      vertex 0 0.51745 0.999695
      vertex 0 0.586824 0.992404
    endloop
  endfacet
  facet normal -1 0 0
    outer loop
      vertex 0 0.192169 0.894005
      vertex 0 0.25 0.933013
      vertex 0 0.5 0.5
    endloop
  endfacet
  facet normal -1 0 0
    outer loop
      vertex 0 0.25 0.933013
      vertex 0 0.312697 0.963592
      vertex 0 0.5 0.5
    endloop
  endfacet
  facet normal -1 0 0
    outer loop
      vertex 0 0.5 0.5
      vertex 0 0.312697 0.963592
      vertex 0 0.379039 0.985148
    endloop
  endfacet
  facet normal -1 0 0
    outer loop
      vertex 0 0.0585262 0.734736
      vertex 0 0.0954915 0.793893
      vertex 0 0.5 0.5
    endloop
  endfacet
  facet normal -1 0 0
    outer loop
      vertex 0 0.0954915 0.793893
      vertex 0 0.14033 0.847329
      vertex 0 0.5 0.5
    endloop
  endfacet
  facet normal -1 0 0
    outer loop
      vertex 0 0.5 0.5
      vertex 0 0.14033 0.847329
      vertex 0 0.192169 0.894005
    endloop
  endfacet
  facet normal -1 0 0
    outer loop
      vertex 0 0.00121797 0.534878
      vertex 0 0.0109262 0.603956
      vertex 0 0.5 0.5
    endloop
  endfacet
  facet normal -1 0 0
    outer loop
      vertex 0 0.0109262 0.603956
      vertex 0 0.0301537 0.67101
      vertex 0 0.5 0.5
    endloop
  endfacet
  facet normal -1 0 0
    outer loop
      vertex 0 0.5 0.5
      vertex 0 0.0301537 0.67101
      vertex 0 0.0585262 0.734736
    endloop
  endfacet
  facet normal 0 -0.999391 -0.0348995
    outer loop
      vertex 5 0.00121797 0.465122
      vertex 5 1.0842e-16 0.5
      vertex 0 1.0842e-16 0.5
    endloop
  endfacet
  facet normal 0 -0.999391 0.0348995
    outer loop
      vertex 0 1.0842e-16 0.5
      vertex 5 1.0842e-16 0.5
      vertex 0 0.00121797 0.534878
    endloop
  endfacet
  facet normal 0 -0.999391 0.0348995
    outer loop
      vertex 5 1.0842e-16 0.5
      vertex 5 0.00121797 0.534878
      vertex 0 0.00121797 0.534878
    endloop
  endfacet
  facet normal 0 -0.990268 0.139173
    outer loop
      vertex 5 0.00121797 0.534878
      vertex 5 0.0109262 0.603956
      vertex 0 0.00121797 0.534878
    endloop
  endfacet
  facet normal 0 -0.990268 0.139173
    outer loop
      vertex 0 0.00121797 0.534878
      vertex 5 0.0109262 0.603956
      vertex 0 0.0109262 0.603956
    endloop
  endfacet
  facet normal 0 -0.961262 0.275637
    outer loop
      vertex 5 0.0109262 0.603956
      vertex 5 0.0301537 0.67101
      vertex 0 0.0109262 0.603956
    endloop
  endfacet
  facet normal 0 -0.961262 0.275637
    outer loop
      vertex 0 0.0109262 0.603956
      vertex 5 0.0301537 0.67101
      vertex 0 0.0301537 0.67101
    endloop
  endfacet
  facet normal 0 -0.913546 0.406736
    outer loop
      vertex 5 0.0301537 0.67101
      vertex 5 0.0585262 0.734736
      vertex 0 0.0301537 0.67101
    endloop
  endfacet
  facet normal 0 -0.913546 0.406736
    outer loop
      vertex 0 0.0301537 0.67101
      vertex 5 0.0585262 0.734736
      vertex 0 0.0585262 0.734736
    endloop
  endfacet
  facet normal 0 -0.848048 0.52992
    outer loop
      vertex 5 0.0585262 0.734736
      vertex 5 0.0954915 0.793893
      vertex 0 0.0585262 0.734736
    endloop
  endfacet
  facet normal 0 -0.848048 0.52992
    outer loop
      vertex 0 0.0585262 0.734736
      vertex 5 0.0954915 0.793893
      vertex 0 0.0954915 0.793893
    endloop
  endfacet
  facet normal 0 -0.766045 0.642787
    outer loop
      vertex 5 0.0954915 0.793893
      vertex 5 0.14033 0.847329
      vertex 0 0.0954915 0.793893
    endloop
  endfacet
  facet normal 0 -0.766045 0.642787
    outer loop
      vertex 0 0.0954915 0.793893
      vertex 5 0.14033 0.847329
      vertex 0 0.14033 0.847329
    endloop
  endfacet
  facet normal 0 -0.66913 0.743145
    outer loop
      vertex 5 0.14033 0.847329
      vertex 5 0.192169 0.894005
      vertex 0 0.14033 0.847329
    endloop
  endfacet
  facet normal 0 -0.66913 0.743145
    outer loop
      vertex 0 0.14033 0.847329
      vertex 5 0.192169 0.894005
      vertex 0 0.192169 0.894005
    endloop
  endfacet
  facet normal 0 -0.559193 0.829038
    outer loop
      vertex 5 0.192169 0.894005
      vertex 5 0.25 0.933013
      vertex 0 0.192169 0.894005
    endloop
  endfacet
  facet normal 0 -0.559193 0.829038
    outer loop
      vertex 0 0.192169 0.894005
      vertex 5 0.25 0.933013
      vertex 0 0.25 0.933013
    endloop
  endfacet
  facet normal 0 -0.438371 0.898794
    outer loop
      vertex 5 0.25 0.933013
      vertex 5 0.312697 0.963592
      vertex 0 0.25 0.933013
    endloop
  endfacet
  facet normal 0 -0.438371 0.898794
    outer loop
      vertex 0 0.25 0.933013
      vertex 5 0.312697 0.963592
      vertex 0 0.312697 0.963592
    endloop
  endfacet
  facet normal 0 -0.309018 0.951056
    outer loop
      vertex 5 0.312697 0.963592
      vertex 5 0.379039 0.985148
      vertex 0 0.312697 0.963592
    endloop
  endfacet
  facet normal 0 -0.309018 0.951056
    outer loop
      vertex 0 0.312697 0.963592
      vertex 5 0.379039 0.985148
      vertex 0 0.379039 0.985148
    endloop
  endfacet
  facet normal 0 -0.173647 0.984808
    outer loop
      vertex 5 0.379039 0.985148
      vertex 5 0.447736 0.997261
      vertex 0 0.379039 0.985148
    endloop
  endfacet
  facet normal 0 -0.173647 0.984808
    outer loop
      vertex 0 0.379039 0.985148
      vertex 5 0.447736 0.997261
      vertex 0 0.447736 0.997261
    endloop
  endfacet
  facet normal 0 -0.0348997 0.999391
    outer loop
      vertex 5 0.447736 0.997261
      vertex 5 0.51745 0.999695
      vertex 0 0.447736 0.997261
    endloop
  endfacet
  facet normal 0 -0.0348997 0.999391
    outer loop
      vertex 0 0.447736 0.997261
      vertex 5 0.51745 0.999695
      vertex 0 0.51745 0.999695
    endloop
  endfacet
  facet normal 0 0.104529 0.994522
    outer loop
      vertex 5 0.51745 0.999695
      vertex 5 0.586824 0.992404
      vertex 0 0.51745 0.999695
    endloop
  endfacet
  facet normal 0 0.104529 0.994522
    outer loop
      vertex 0 0.51745 0.999695
      vertex 5 0.586824 0.992404
      vertex 0 0.586824 0.992404
    endloop
  endfacet
  facet normal 0 0.241921 0.970296
    outer loop
      vertex 5 0.586824 0.992404
      vertex 5 0.654508 0.975528
      vertex 0 0.586824 0.992404
    endloop
  endfacet
  facet normal 0 0.241921 0.970296
    outer loop
      vertex 0 0.586824 0.992404
      vertex 5 0.654508 0.975528
      vertex 0 0.654508 0.975528
    endloop
  endfacet
  facet normal 0 0.374606 0.927184
    outer loop
      vertex 5 0.654508 0.975528
      vertex 5 0.719186 0.949397
      vertex 0 0.654508 0.975528
    endloop
  endfacet
  facet normal 0 0.374606 0.927184
    outer loop
      vertex 0 0.654508 0.975528
      vertex 5 0.719186 0.949397
      vertex 0 0.719186 0.949397
    endloop
  endfacet
  facet normal 0 0.5 0.866025
    outer loop
      vertex 5 0.719186 0.949397
      vertex 5 0.779596 0.914519
      vertex 0 0.719186 0.949397
    endloop
  endfacet
  facet normal 0 0.5 0.866025
    outer loop
      vertex 0 0.719186 0.949397
      vertex 5 0.779596 0.914519
      vertex 0 0.779596 0.914519
    endloop
  endfacet
  facet normal 0 0.615661 0.788011
    outer loop
      vertex 5 0.779596 0.914519
      vertex 5 0.834565 0.871572
      vertex 0 0.779596 0.914519
    endloop
  endfacet
  facet normal 0 0.615661 0.788011
    outer loop
      vertex 0 0.779596 0.914519
      vertex 5 0.834565 0.871572
      vertex 0 0.834565 0.871572
    endloop
  endfacet
  facet normal 0 0.71934 0.694658
    outer loop
      vertex 5 0.834565 0.871572
      vertex 5 0.883022 0.821394
      vertex 0 0.834565 0.871572
    endloop
  endfacet
  facet normal 0 0.71934 0.694658
    outer loop
      vertex 0 0.834565 0.871572
      vertex 5 0.883022 0.821394
      vertex 0 0.883022 0.821394
    endloop
  endfacet
  facet normal 0 0.809017 0.587785
    outer loop
      vertex 5 0.883022 0.821394
      vertex 5 0.924024 0.76496
      vertex 0 0.883022 0.821394
    endloop
  endfacet
  facet normal 0 0.809017 0.587785
    outer loop
      vertex 0 0.883022 0.821394
      vertex 5 0.924024 0.76496
      vertex 0 0.924024 0.76496
    endloop
  endfacet
  facet normal 0 0.882947 0.469472
    outer loop
      vertex 5 0.924024 0.76496
      vertex 5 0.956773 0.703368
      vertex 0 0.924024 0.76496
    endloop
  endfacet
  facet normal 0 0.882947 0.469472
    outer loop
      vertex 0 0.924024 0.76496
      vertex 5 0.956773 0.703368
      vertex 0 0.956773 0.703368
    endloop
  endfacet
  facet normal 0 0.939693 0.34202
    outer loop
      vertex 5 0.956773 0.703368
      vertex 5 0.980631 0.637819
      vertex 0 0.956773 0.703368
    endloop
  endfacet
  facet normal 0 0.939693 0.34202
    outer loop
      vertex 0 0.956773 0.703368
      vertex 5 0.980631 0.637819
      vertex 0 0.980631 0.637819
    endloop
  endfacet
  facet normal 0 0.978148 0.207911
    outer loop
      vertex 5 0.980631 0.637819
      vertex 5 0.995134 0.569587
      vertex 0 0.980631 0.637819
    endloop
  endfacet
  facet normal 0 0.978148 0.207911
    outer loop
      vertex 0 0.980631 0.637819
      vertex 5 0.995134 0.569587
      vertex 0 0.995134 0.569587
    endloop
  endfacet
  facet normal 0 0.997564 0.0697576
    outer loop
      vertex 5 0.995134 0.569587
      vertex 5 1 0.5
      vertex 0 0.995134 0.569587
    endloop
  endfacet
  facet normal 0 0.997564 0.0697576
    outer loop
      vertex 0 0.995134 0.569587
      vertex 5 1 0.5
      vertex 0 1 0.5
    endloop
  endfacet
  facet normal 0 0.997564 -0.0697576
    outer loop
      vertex 5 1 0.5
      vertex 5 0.995134 0.430413
      vertex 0 1 0.5
    endloop
  endfacet
  facet normal 0 0.997564 -0.0697576
    outer loop
      vertex 0 1 0.5
      vertex 5 0.995134 0.430413
      vertex 0 0.995134 0.430413
    endloop
  endfacet
  facet normal 0 0.978148 -0.207911
    outer loop
      vertex 5 0.995134 0.430413
      vertex 5 0.980631 0.362181
      vertex 0 0.995134 0.430413
    endloop
  endfacet
  facet normal 0 0.978148 -0.207911
    outer loop
      vertex 0 0.995134 0.430413
      vertex 5 0.980631 0.362181
      vertex 0 0.980631 0.362181
    endloop
  endfacet
  facet normal 0 0.939692 -0.342021
    outer loop
      vertex 5 0.980631 0.362181
      vertex 5 0.956773 0.296632
      vertex 0 0.980631 0.362181
    endloop
  endfacet
  facet normal 0 0.939692 -0.342021
    outer loop
      vertex 0 0.980631 0.362181
      vertex 5 0.956773 0.296632
      vertex 0 0.956773 0.296632
    endloop
  endfacet
  facet normal 0 0.882948 -0.469471
    outer loop
      vertex 5 0.956773 0.296632
      vertex 5 0.924024 0.23504
      vertex 0 0.956773 0.296632
    endloop
  endfacet
  facet normal 0 0.882948 -0.469471
    outer loop
      vertex 0 0.956773 0.296632
      vertex 5 0.924024 0.23504
      vertex 0 0.924024 0.23504
    endloop
  endfacet
  facet normal 0 0.809017 -0.587785
    outer loop
      vertex 5 0.924024 0.23504
      vertex 5 0.883022 0.178606
      vertex 0 0.924024 0.23504
    endloop
  endfacet
  facet normal 0 0.809017 -0.587785
    outer loop
      vertex 0 0.924024 0.23504
      vertex 5 0.883022 0.178606
      vertex 0 0.883022 0.178606
    endloop
  endfacet
  facet normal 0 0.71934 -0.694658
    outer loop
      vertex 5 0.883022 0.178606
      vertex 5 0.834565 0.128428
      vertex 0 0.883022 0.178606
    endloop
  endfacet
  facet normal 0 0.71934 -0.694658
    outer loop
      vertex 0 0.883022 0.178606
      vertex 5 0.834565 0.128428
      vertex 0 0.834565 0.128428
    endloop
  endfacet
  facet normal 0 0.615661 -0.788011
    outer loop
      vertex 5 0.834565 0.128428
      vertex 5 0.779596 0.0854812
      vertex 0 0.834565 0.128428
    endloop
  endfacet
  facet normal 0 0.615661 -0.788011
    outer loop
      vertex 0 0.834565 0.128428
      vertex 5 0.779596 0.0854812
      vertex 0 0.779596 0.0854812
    endloop
  endfacet
  facet normal 0 0.5 -0.866025
    outer loop
      vertex 5 0.779596 0.0854812
      vertex 5 0.719186 0.050603
      vertex 0 0.779596 0.0854812
    endloop
  endfacet
  facet normal 0 0.5 -0.866025
    outer loop
      vertex 0 0.779596 0.0854812
      vertex 5 0.719186 0.050603
      vertex 0 0.719186 0.050603
    endloop
  endfacet
  facet normal 0 0.374607 -0.927184
    outer loop
      vertex 5 0.719186 0.050603
      vertex 5 0.654508 0.0244717
      vertex 0 0.719186 0.050603
    endloop
  endfacet
  facet normal 0 0.374607 -0.927184
    outer loop
      vertex 0 0.719186 0.050603
      vertex 5 0.654508 0.0244717
      vertex 0 0.654508 0.0244717
    endloop
  endfacet
  facet normal 0 0.241922 -0.970296
    outer loop
      vertex 5 0.654508 0.0244717
      vertex 5 0.586824 0.00759612
      vertex 0 0.654508 0.0244717
    endloop
  endfacet
  facet normal 0 0.241922 -0.970296
    outer loop
      vertex 0 0.654508 0.0244717
      vertex 5 0.586824 0.00759612
      vertex 0 0.586824 0.00759612
    endloop
  endfacet
  facet normal 0 0.104528 -0.994522
    outer loop
      vertex 5 0.586824 0.00759612
      vertex 5 0.51745 0.000304586
      vertex 0 0.586824 0.00759612
    endloop
  endfacet
  facet normal 0 0.104528 -0.994522
    outer loop
      vertex 0 0.586824 0.00759612
      vertex 5 0.51745 0.000304586
      vertex 0 0.51745 0.000304586
    endloop
  endfacet
  facet normal 0 -0.0348995 -0.999391
    outer loop
      vertex 5 0.51745 0.000304586
      vertex 5 0.447736 0.00273905
      vertex 0 0.51745 0.000304586
    endloop
  endfacet
  facet normal 0 -0.0348995 -0.999391
    outer loop
      vertex 0 0.51745 0.000304586
      vertex 5 0.447736 0.00273905
      vertex 0 0.447736 0.00273905
    endloop
  endfacet
  facet normal 0 -0.173648 -0.984808
    outer loop
      vertex 5 0.447736 0.00273905
      vertex 5 0.379039 0.0148521
      vertex 0 0.447736 0.00273905
    endloop
  endfacet
  facet normal 0 -0.173648 -0.984808
    outer loop
      vertex 0 0.447736 0.00273905
      vertex 5 0.379039 0.0148521
      vertex 0 0.379039 0.0148521
    endloop
  endfacet
  facet normal 0 -0.309017 -0.951057
    outer loop
      vertex 5 0.379039 0.0148521
      vertex 5 0.312697 0.0364081
      vertex 0 0.379039 0.0148521
    endloop
  endfacet
  facet normal 0 -0.309017 -0.951057
    outer loop
      vertex 0 0.379039 0.0148521
      vertex 5 0.312697 0.0364081
      vertex 0 0.312697 0.0364081
    endloop
  endfacet
  facet normal 0 -0.438371 -0.898794
    outer loop
      vertex 5 0.312697 0.0364081
      vertex 5 0.25 0.0669873
      vertex 0 0.312697 0.0364081
    endloop
  endfacet
  facet normal 0 -0.438371 -0.898794
    outer loop
      vertex 0 0.312697 0.0364081
      vertex 5 0.25 0.0669873
      vertex 0 0.25 0.0669873
    endloop
  endfacet
  facet normal 0 -0.559193 -0.829038
    outer loop
      vertex 5 0.25 0.0669873
      vertex 5 0.192169 0.105995
      vertex 0 0.25 0.0669873
    endloop
  endfacet
  facet normal 0 -0.559193 -0.829038
    outer loop
      vertex 0 0.25 0.0669873
      vertex 5 0.192169 0.105995
      vertex 0 0.192169 0.105995
    endloop
  endfacet
  facet normal 0 -0.669131 -0.743145
    outer loop
      vertex 5 0.192169 0.105995
      vertex 5 0.14033 0.152671
      vertex 0 0.192169 0.105995
    endloop
  endfacet
  facet normal 0 -0.669131 -0.743145
    outer loop
      vertex 0 0.192169 0.105995
      vertex 5 0.14033 0.152671
      vertex 0 0.14033 0.152671
    endloop
  endfacet
  facet normal 0 -0.766044 -0.642788
    outer loop
      vertex 5 0.14033 0.152671
      vertex 5 0.0954915 0.206107
      vertex 0 0.14033 0.152671
    endloop
  endfacet
  facet normal 0 -0.766044 -0.642788
    outer loop
      vertex 0 0.14033 0.152671
      vertex 5 0.0954915 0.206107
      vertex 0 0.0954915 0.206107
    endloop
  endfacet
  facet normal 0 -0.848048 -0.529919
    outer loop
      vertex 5 0.0954915 0.206107
      vertex 5 0.0585262 0.265264
      vertex 0 0.0954915 0.206107
    endloop
  endfacet
  facet normal 0 -0.848048 -0.529919
    outer loop
      vertex 0 0.0954915 0.206107
      vertex 5 0.0585262 0.265264
      vertex 0 0.0585262 0.265264
    endloop
  endfacet
  facet normal 0 -0.913545 -0.406737
    outer loop
      vertex 5 0.0585262 0.265264
      vertex 5 0.0301537 0.32899
      vertex 0 0.0585262 0.265264
    endloop
  endfacet
  facet normal 0 -0.913545 -0.406737
    outer loop
      vertex 0 0.0585262 0.265264
      vertex 5 0.0301537 0.32899
      vertex 0 0.0301537 0.32899
    endloop
  endfacet
  facet normal 0 -0.961262 -0.275637
    outer loop
      vertex 5 0.0301537 0.32899
      vertex 5 0.0109262 0.396044
      vertex 0 0.0301537 0.32899
    endloop
  endfacet
  facet normal 0 -0.961262 -0.275637
    outer loop
      vertex 0 0.0301537 0.32899
      vertex 5 0.0109262 0.396044
      vertex 0 0.0109262 0.396044
    endloop
  endfacet
  facet normal 0 -0.990268 -0.139173
    outer loop
      vertex 5 0.0109262 0.396044
      vertex 5 0.00121797 0.465122
      vertex 0 0.0109262 0.396044
    endloop
  endfacet
  facet normal 0 -0.990268 -0.139173
    outer loop
      vertex 0 0.0109262 0.396044
      vertex 5 0.00121797 0.465122
      vertex 0 0.00121797 0.465122
    endloop
  endfacet
  facet normal 0 -0.999391 -0.0348995
    outer loop
      vertex 5 0.00121797 0.465122
      vertex 0 1.0842e-16 0.5
      vertex 0 0.00121797 0.465122
    endloop
  endfacet
  facet normal 1 0 0
    outer loop
      vertex 5 1.0842e-16 0.5
      vertex 5 0.00121797 0.465122
      vertex 5 0.5 0.5
    endloop
  endfacet
  facet normal 1 0 0
    outer loop
      vertex 5 0.0301537 0.67101
      vertex 5 0.0109262 0.603956
      vertex 5 0.5 0.5
    endloop
  endfacet
  facet normal 1 0 0
    outer loop
      vertex 5 0.0109262 0.603956
      vertex 5 0.00121797 0.534878
      vertex 5 0.5 0.5
    endloop
  endfacet
  facet normal 1 0 0
    outer loop
      vertex 5 0.5 0.5
      vertex 5 0.00121797 0.534878
      vertex 5 1.0842e-16 0.5
    endloop
  endfacet
  facet normal 1 0 0
    outer loop
      vertex 5 0.14033 0.847329
      vertex 5 0.0954915 0.793893
      vertex 5 0.5 0.5
    endloop
  endfacet
  facet normal 1 0 0
    outer loop
      vertex 5 0.0954915 0.793893
      vertex 5 0.0585262 0.734736
      vertex 5 0.5 0.5
    endloop
  endfacet
  facet normal 1 0 0
    outer loop
      vertex 5 0.5 0.5
      vertex 5 0.0585262 0.734736
      vertex 5 0.0301537 0.67101
    endloop
  endfacet
  facet normal 1 0 0
    outer loop
      vertex 5 0.312697 0.963592
      vertex 5 0.25 0.933013
      vertex 5 0.5 0.5
    endloop
  endfacet
  facet normal 1 0 0
    outer loop
      vertex 5 0.25 0.933013
      vertex 5 0.192169 0.894005
      vertex 5 0.5 0.5
    endloop
  endfacet
  facet normal 1 0 0
    outer loop
      vertex 5 0.5 0.5
      vertex 5 0.192169 0.894005
      vertex 5 0.14033 0.847329
    endloop
  endfacet
  facet normal 1 0 0
    outer loop
      vertex 5 0.51745 0.999695
      vertex 5 0.447736 0.997261
      vertex 5 0.5 0.5
    endloop
  endfacet
  facet normal 1 0 0
    outer loop
      vertex 5 0.447736 0.997261
      vertex 5 0.379039 0.985148
      vertex 5 0.5 0.5
    endloop
  endfacet
  facet normal 1 0 0
    outer loop
      vertex 5 0.5 0.5
      vertex 5 0.379039 0.985148
      vertex 5 0.312697 0.963592
    endloop
  endfacet
  facet normal 1 0 0
    outer loop
      vertex 5 0.719186 0.949397
      vertex 5 0.654508 0.975528
      vertex 5 0.5 0.5
    endloop
  endfacet
  facet normal 1 0 0
    outer loop
      vertex 5 0.654508 0.975528
      vertex 5 0.586824 0.992404
      vertex 5 0.5 0.5
    endloop
  endfacet
  facet normal 1 0 0
    outer loop
      vertex 5 0.5 0.5
      vertex 5 0.586824 0.992404
      vertex 5 0.51745 0.999695
    endloop
  endfacet
  facet normal 1 0 0
    outer loop
      vertex 5 0.883022 0.821394
      vertex 5 0.834565 0.871572
      vertex 5 0.5 0.5
    endloop
  endfacet
  facet normal 1 0 0
    outer loop
      vertex 5 0.834565 0.871572
      vertex 5 0.779596 0.914519
      vertex 5 0.5 0.5
    endloop
  endfacet
  facet normal 1 0 0
    outer loop
      vertex 5 0.5 0.5
      vertex 5 0.779596 0.914519
      vertex 5 0.719186 0.949397
    endloop
  endfacet
  facet normal 1 0 0
    outer loop
      vertex 5 0.980631 0.637819
      vertex 5 0.956773 0.703368
      vertex 5 0.5 0.5
    endloop
  endfacet
  facet normal 1 0 0
    outer loop
      vertex 5 0.956773 0.703368
      vertex 5 0.924024 0.76496
      vertex 5 0.5 0.5
    endloop
  endfacet
  facet normal 1 0 0
    outer loop
      vertex 5 0.5 0.5
      vertex 5 0.924024 0.76496
      vertex 5 0.883022 0.821394
    endloop
  endfacet
  facet normal 1 0 0
    outer loop
      vertex 5 0.995134 0.430413
      vertex 5 1 0.5
      vertex 5 0.5 0.5
    endloop
  endfacet
  facet normal 1 0 0
    outer loop
      vertex 5 1 0.5
      vertex 5 0.995134 0.569587
      vertex 5 0.5 0.5
    endloop
  endfacet
  facet normal 1 0 0
    outer loop
      vertex 5 0.5 0.5
      vertex 5 0.995134 0.569587
      vertex 5 0.980631 0.637819
    endloop
  endfacet
  facet normal 1 0 0
    outer loop
      vertex 5 0.924024 0.23504
      vertex 5 0.956773 0.296632
      vertex 5 0.5 0.5
    endloop
  endfacet
  facet normal 1 0 0
    outer loop
      vertex 5 0.956773 0.296632
      vertex 5 0.980631 0.362181
      vertex 5 0.5 0.5
    endloop
  endfacet
  facet normal 1 0 0
    outer loop
      vertex 5 0.5 0.5
      vertex 5 0.980631 0.362181
      vertex 5 0.995134 0.430413
    endloop
  endfacet
  facet normal 1 0 0
    outer loop
      vertex 5 0.779596 0.0854812
      vertex 5 0.834565 0.128428
      vertex 5 0.5 0.5
    endloop
  endfacet
  facet normal 1 0 0
    outer loop
      vertex 5 0.834565 0.128428
      vertex 5 0.883022 0.178606
      vertex 5 0.5 0.5
    endloop
  endfacet
  facet normal 1 0 0
    outer loop
      vertex 5 0.5 0.5
      vertex 5 0.883022 0.178606
      vertex 5 0.924024 0.23504
    endloop
  endfacet
  facet normal 1 0 0
    outer loop
      vertex 5 0.586824 0.00759612
      vertex 5 0.654508 0.0244717
      vertex 5 0.5 0.5
    endloop
  endfacet
  facet normal 1 0 0
    outer loop
      vertex 5 0.654508 0.0244717
      vertex 5 0.719186 0.050603
      vertex 5 0.5 0.5
    endloop
  endfacet
  facet normal 1 0 0
    outer loop
      vertex 5 0.5 0.5
      vertex 5 0.719186 0.050603
      vertex 5 0.779596 0.0854812
    endloop
  endfacet
  facet normal 1 0 0
    outer loop
      vertex 5 0.379039 0.0148521
      vertex 5 0.447736 0.00273905
      vertex 5 0.5 0.5
    endloop
  endfacet
  facet normal 1 0 0
    outer loop
      vertex 5 0.447736 0.00273905
      vertex 5 0.51745 0.000304586
      vertex 5 0.5 0.5
    endloop
  endfacet
  facet normal 1 0 0
    outer loop
      vertex 5 0.5 0.5
      vertex 5 0.51745 0.000304586
      vertex 5 0.586824 0.00759612
    endloop
  endfacet
  facet normal 1 0 0
    outer loop
      vertex 5 0.192169 0.105995
      vertex 5 0.25 0.0669873
      vertex 5 0.5 0.5
    endloop
  endfacet
  facet normal 1 0 0
    outer loop
      vertex 5 0.25 0.0669873
      vertex 5 0.312697 0.0364081
      vertex 5 0.5 0.5
    endloop
  endfacet
  facet normal 1 0 0
    outer loop
      vertex 5 0.5 0.5
      vertex 5 0.312697 0.0364081
      vertex 5 0.379039 0.0148521
    endloop
  endfacet
  facet normal 1 0 0
    outer loop
      vertex 5 0.0585262 0.265264
      vertex 5 0.0954915 0.206107
      vertex 5 0.5 0.5
    endloop
  endfacet
  facet normal 1 0 0
    outer loop
      vertex 5 0.0954915 0.206107
      vertex 5 0.14033 0.152671
      vertex 5 0.5 0.5
    endloop
  endfacet
  facet normal 1 0 0
    outer loop
      vertex 5 0.5 0.5
      vertex 5 0.14033 0.152671
      vertex 5 0.192169 0.105995
    endloop
  endfacet
  facet normal 1 0 0
    outer loop
      vertex 5 0.00121797 0.465122
      vertex 5 0.0109262 0.396044
      vertex 5 0.5 0.5
    endloop
  endfacet
  facet normal 1 0 0
    outer loop
      vertex 5 0.0109262 0.396044
      vertex 5 0.0301537 0.32899
      vertex 5 0.5 0.5
    endloop
  endfacet
  facet normal 1 0 0
    outer loop
      vertex 5 0.5 0.5
      vertex 5 0.0301537 0.32899
      vertex 5 0.0585262 0.265264
    endloop
  endfacet
endsolid Mesh
